<svg width="192" height="68" version="1.1" xmlns="http://www.w3.org/2000/svg" desc="Created with imagetracer.js version 1.2.6" ><path fill="rgb(231,70,138)" stroke="rgb(231,70,138)" stroke-width="1" opacity="1" d="M 140 0 L 190.5 0 L 191 1.5 L 165.5 32 L 154.5 27 L 142.5 26 L 140 25 L 140 0 Z " /><path fill="rgb(243,240,236)" stroke="rgb(243,240,236)" stroke-width="1" opacity="1" d="M 27.5 0 L 30 0.5 L 27.5 1 L 27.5 0 Z " /><path fill="rgb(243,240,236)" stroke="rgb(243,240,236)" stroke-width="1" opacity="1" d="M 39.5 0 L 42 0.5 L 39.5 1 L 39.5 0 Z " /><path fill="rgb(243,240,236)" stroke="rgb(243,240,236)" stroke-width="1" opacity="1" d="M 139.5 0 L 140 24.5 L 139 24.5 L 139.5 0 Z " /><path fill="rgb(243,240,236)" stroke="rgb(243,240,236)" stroke-width="1" opacity="1" d="M 20.5 2 L 22 2.5 L 17.5 5 L 18.5 3 L 20.5 2 Z " /><path fill="rgb(243,240,236)" stroke="rgb(243,240,236)" stroke-width="1" opacity="1" d="M 89.5 2 L 90.5 4 L 89.5 2 Z " /><path fill="rgb(243,240,236)" stroke="rgb(243,240,236)" stroke-width="1" opacity="1" d="M 189.5 3 L 186.5 7 L 189.5 3 Z " /><path fill="rgb(243,240,236)" stroke="rgb(243,240,236)" stroke-width="1" opacity="1" d="M 92.5 4 L 96.5 9 L 92.5 4 Z " /><path fill="rgb(243,240,236)" stroke="rgb(243,240,236)" stroke-width="1" opacity="1" d="M 53.5 5 L 54.5 7 L 53.5 5 Z " /><path fill="rgb(243,240,236)" stroke="rgb(243,240,236)" stroke-width="1" opacity="1" d="M 12.5 7 L 7.5 13 L 12.5 7 Z " /><path fill="rgb(243,240,236)" stroke="rgb(243,240,236)" stroke-width="1" opacity="1" d="M 58.5 9 L 59.5 11 L 58.5 9 Z " /><path fill="rgb(243,240,236)" stroke="rgb(243,240,236)" stroke-width="1" opacity="1" d="M 184.5 9 L 181.5 13 L 184.5 9 Z " /><path fill="rgb(243,240,236)" stroke="rgb(243,240,236)" stroke-width="1" opacity="1" d="M 97.5 10 L 100 14.5 L 99 14.5 L 97.5 10 Z " /><path fill="rgb(243,240,236)" stroke="rgb(243,240,236)" stroke-width="1" opacity="1" d="M 61.5 13 L 59.5 16 L 61.5 13 Z " /><path fill="rgb(243,240,236)" stroke="rgb(243,240,236)" stroke-width="1" opacity="1" d="M 179.5 15 L 177.5 18 L 179.5 15 Z " /><path fill="rgb(243,240,236)" stroke="rgb(243,240,236)" stroke-width="1" opacity="1" d="M 100.5 16 L 101 18.5 L 100 18.5 L 100.5 16 Z " /><path fill="rgb(243,240,236)" stroke="rgb(243,240,236)" stroke-width="1" opacity="1" d="M 4.5 19 L 50 19.5 L 4.5 20 L 4.5 19 Z " /><path fill="rgb(243,240,236)" stroke="rgb(243,240,236)" stroke-width="1" opacity="1" d="M 174.5 21 L 172.5 24 L 174.5 21 Z " /><path fill="rgb(243,240,236)" stroke="rgb(243,240,236)" stroke-width="1" opacity="1" d="M 169.5 27 L 167.5 30 L 169.5 27 Z " /><path fill="rgb(243,240,236)" stroke="rgb(243,240,236)" stroke-width="1" opacity="1" d="M 173.5 36 L 174.5 38 L 173.5 36 Z " /><path fill="rgb(243,240,236)" stroke="rgb(243,240,236)" stroke-width="1" opacity="1" d="M 180.5 43 L 181.5 45 L 180.5 43 Z " /><path fill="rgb(243,240,236)" stroke="rgb(243,240,236)" stroke-width="1" opacity="1" d="M 4.5 48 L 51 48.5 L 4.5 49 L 4.5 48 Z " /><path fill="rgb(243,240,236)" stroke="rgb(243,240,236)" stroke-width="1" opacity="1" d="M 7.5 55 L 12.5 61 L 7.5 55 Z " /><path fill="rgb(243,240,236)" stroke="rgb(243,240,236)" stroke-width="1" opacity="1" d="M 139.5 63 L 140 67.5 L 139 67.5 L 139.5 63 Z " /><path fill="rgb(214,162,39)" stroke="rgb(214,162,39)" stroke-width="1" opacity="1" d="M 16.5 5 L 26 13.5 L 28 19 L 4 18.5 L 13.5 7 L 16.5 5 Z " /><path fill="rgb(214,162,39)" stroke="rgb(214,162,39)" stroke-width="1" opacity="1" d="M 69.5 36 L 101 36.5 L 69.5 37 L 69.5 36 Z " /><path fill="rgb(242,188,14)" stroke="rgb(242,188,14)" stroke-width="1" opacity="1" d="M 70.5 0 L 71 34.5 L 70 34.5 L 70.5 0 Z " /><path fill="rgb(242,188,14)" stroke="rgb(242,188,14)" stroke-width="1" opacity="1" d="M 26.5 1 L 30 1.5 L 26.5 2 L 26.5 1 Z " /><path fill="rgb(242,188,14)" stroke="rgb(242,188,14)" stroke-width="1" opacity="1" d="M 39.5 1 L 43 1.5 L 39.5 2 L 39.5 1 Z " /><path fill="rgb(242,188,14)" stroke="rgb(242,188,14)" stroke-width="1" opacity="1" d="M 81.5 1 L 85 1.5 L 81.5 2 L 81.5 1 Z " /><path fill="rgb(242,188,14)" stroke="rgb(242,188,14)" stroke-width="1" opacity="1" d="M 86.5 2 L 95 7.5 L 97 10.5 L 94 8.5 L 92.5 6 L 86.5 3 L 86.5 2 Z " /><path fill="rgb(242,188,14)" stroke="rgb(242,188,14)" stroke-width="1" opacity="1" d="M 20.5 3 L 22 3.5 L 18.5 5 L 18.5 4 L 20.5 3 Z " /><path fill="rgb(242,188,14)" stroke="rgb(242,188,14)" stroke-width="1" opacity="1" d="M 51.5 5 L 61 13.5 L 59 14.5 L 60 13.5 L 53.5 7 L 51.5 5 Z " /><path fill="rgb(242,188,14)" stroke="rgb(242,188,14)" stroke-width="1" opacity="1" d="M 57.5 15 L 56.5 17 L 55 16.5 L 57.5 15 Z " /><path fill="rgb(242,188,14)" stroke="rgb(242,188,14)" stroke-width="1" opacity="1" d="M 99.5 17 L 100 34.5 L 99 34.5 L 99.5 17 Z " /><path fill="rgb(241,190,29)" stroke="rgb(241,190,29)" stroke-width="1" opacity="1" d="M 30 0 L 38.5 0 Q 37.5 3 42.5 2 L 44 1.5 Q 43.3 3.8 45.5 3 L 47 2.5 L 47.5 4 L 49 3.5 L 49.5 5 L 51 4.5 L 51.5 6 L 53 5.5 L 52.5 7 L 54.5 8 L 55.5 7 L 61 12.5 L 57.5 17 L 55.5 16 L 55.5 18 L 52.5 17 L 52.5 19 L 28.5 19 L 28 17.5 Q 24.8 9.7 18 5.5 L 22 4 L 22.5 2 L 25 3 L 25.5 1 L 30 2 L 30 0 Z " /><path fill="rgb(241,190,29)" stroke="rgb(241,190,29)" stroke-width="1" opacity="1" d="M 69.5 0 L 70.5 35 L 71 0 L 83 0.5 L 81 1.5 L 84.5 2 L 86 1.5 Q 85.3 3.8 87.5 3 L 89 2.5 L 88.5 4 L 90.5 5 L 92 4.5 L 91.5 6 L 94 7.5 L 94.5 9 Q 95.8 6.8 97 9.5 L 96.5 11 L 98 11.5 L 97.5 13 L 99 13.5 L 98 15.5 L 100 15.5 L 99 17.5 L 99 34.5 L 100 34.5 L 100.5 19 L 101 36 L 69 36 L 69.5 0 Z " /><path fill="rgb(254,254,254)" stroke="rgb(254,254,254)" stroke-width="1" opacity="1" d="M 51.5 26 L 52.5 28 L 51.5 26 Z " /><path fill="rgb(254,254,254)" stroke="rgb(254,254,254)" stroke-width="1" opacity="1" d="M 52.5 40 L 51.5 42 L 52.5 40 Z " /><path fill="rgb(11,2,3)" stroke="rgb(11,2,3)" stroke-width="1" opacity="1" d="M 2.5 25 L 29.5 25 L 30 26.5 L 28.5 26 L 2.5 26 L 2.5 25 Z " /><path fill="rgb(11,2,3)" stroke="rgb(11,2,3)" stroke-width="1" opacity="1" d="M 140.5 26 L 141 60.5 L 140 60.5 L 140.5 26 Z " /><path fill="rgb(11,2,3)" stroke="rgb(11,2,3)" stroke-width="1" opacity="1" d="M 1.5 27 L 2 40.5 L 1 40.5 L 1.5 27 Z " /><path fill="rgb(11,2,3)" stroke="rgb(11,2,3)" stroke-width="1" opacity="1" d="M 30.5 29 L 31 38.5 L 30 38.5 L 30.5 29 Z " /><path fill="rgb(11,2,3)" stroke="rgb(11,2,3)" stroke-width="1" opacity="1" d="M 70.5 39 L 71 42.5 L 70 42.5 L 70.5 39 Z " /><path fill="rgb(11,2,3)" stroke="rgb(11,2,3)" stroke-width="1" opacity="1" d="M 2.5 42 L 30 42.5 L 2.5 43 L 2.5 42 Z " /><path fill="rgb(11,2,3)" stroke="rgb(11,2,3)" stroke-width="1" opacity="1" d="M 74.5 52 L 83 61.5 L 75 54.5 L 74.5 52 Z " /><path fill="rgb(11,2,3)" stroke="rgb(11,2,3)" stroke-width="1" opacity="1" d="M 84.5 62 L 89 64.5 L 87.5 65 L 84.5 62 Z " /><path fill="rgb(11,2,3)" stroke="rgb(11,2,3)" stroke-width="1" opacity="1" d="M 93.5 66 L 97 66.5 L 93.5 67 L 93.5 66 Z " /><path fill="rgb(187,214,212)" stroke="rgb(187,214,212)" stroke-width="1" opacity="1" d="M 30.5 24 L 47 24.5 L 30.5 25 L 30.5 24 Z " /><path fill="rgb(187,214,212)" stroke="rgb(187,214,212)" stroke-width="1" opacity="1" d="M 139.5 25 L 140 62.5 L 139 62.5 L 139.5 25 Z " /><path fill="rgb(187,214,212)" stroke="rgb(187,214,212)" stroke-width="1" opacity="1" d="M 0.5 28 L 1 30.5 L 0 30.5 L 0.5 28 Z " /><path fill="rgb(187,214,212)" stroke="rgb(187,214,212)" stroke-width="1" opacity="1" d="M 54.5 32 L 55 35.5 L 54 35.5 L 54.5 32 Z " /><path fill="rgb(187,214,212)" stroke="rgb(187,214,212)" stroke-width="1" opacity="1" d="M 107.5 36 L 130 36 L 130 67.5 L 129 67.5 L 129 37 L 107.5 37 L 107.5 36 Z " /><path fill="rgb(187,214,212)" stroke="rgb(187,214,212)" stroke-width="1" opacity="1" d="M 0.5 37 L 1 39.5 L 0 39.5 L 0.5 37 Z " /><path fill="rgb(187,214,212)" stroke="rgb(187,214,212)" stroke-width="1" opacity="1" d="M 175.5 38 L 179.5 43 L 175.5 38 Z " /><path fill="rgb(187,214,212)" stroke="rgb(187,214,212)" stroke-width="1" opacity="1" d="M 30.5 43 L 47 43.5 L 30.5 44 L 30.5 43 Z " /><path fill="rgb(187,214,212)" stroke="rgb(187,214,212)" stroke-width="1" opacity="1" d="M 182.5 46 L 183.5 48 L 182.5 46 Z " /><path fill="rgb(187,214,212)" stroke="rgb(187,214,212)" stroke-width="1" opacity="1" d="M 59.5 52 L 60.5 54 L 59.5 52 Z " /><path fill="rgb(187,214,212)" stroke="rgb(187,214,212)" stroke-width="1" opacity="1" d="M 55.5 60 L 54.5 62 L 55.5 60 Z " /><path fill="rgb(187,214,212)" stroke="rgb(187,214,212)" stroke-width="1" opacity="1" d="M 81.5 61 L 82.5 63 L 81.5 61 Z " /><path fill="rgb(187,214,212)" stroke="rgb(187,214,212)" stroke-width="1" opacity="1" d="M 191.5 65 L 192 67.5 L 191 67.5 L 191.5 65 Z " /><path fill="rgb(187,214,212)" stroke="rgb(187,214,212)" stroke-width="1" opacity="1" d="M 27.5 67 L 30 67.5 L 27.5 68 L 27.5 67 Z " /><path fill="rgb(187,214,212)" stroke="rgb(187,214,212)" stroke-width="1" opacity="1" d="M 38.5 67 L 41 67.5 L 38.5 68 L 38.5 67 Z " /><path fill="rgb(255,255,255)" stroke="rgb(255,255,255)" stroke-width="1" opacity="1" d="M 0 0 L 27 0.5 Q 13.4 2.9 7 12.5 L 4 20 L 49.5 20 L 56.5 18 L 62 13.5 L 58.5 9 Q 52.3 2.7 42 0.5 L 69 0 L 69 43.5 Q 72.7 56.3 82.5 63 L 93 67.5 L 42.5 68 L 42.5 67 Q 56 64.5 62 54.5 Q 58.3 49.2 50.5 48 L 4 48 Q 4.9 56.9 12.5 61 Q 17.9 66.1 27 67.5 L 0 68 L 0.5 40 L 1 44 L 47.5 44 L 53 40.5 Q 55.8 37.8 55 31.5 L 51.5 26 L 47.5 24 L 1 24 L 0.5 28 L 0 0 Z " /><path fill="rgb(255,255,255)" stroke="rgb(255,255,255)" stroke-width="1" opacity="1" d="M 85.5 0 L 139 0 L 139 68 L 130.5 68 L 130 67.5 L 130 36 L 101 36 L 101 16.5 Q 98.5 8.5 92.5 4 L 85.5 1 L 85.5 0 Z " /><path fill="rgb(255,255,255)" stroke="rgb(255,255,255)" stroke-width="1" opacity="1" d="M 191.5 1 L 192 63.5 L 191 63.5 Q 186.4 45.6 173.5 36 L 166 31.5 L 191.5 1 Z " /><path fill="rgb(8,163,221)" stroke="rgb(8,163,221)" stroke-width="1" opacity="1" d="M 30.5 25 L 48.5 25 L 52 27 L 54 30.5 L 54 37.5 L 52 41 L 48.5 43 L 30.5 43 L 31 41.5 L 31 26.5 L 30.5 25 Z " /><path fill="rgb(36,32,32)" stroke="rgb(36,32,32)" stroke-width="1" opacity="1" d="M 140.5 25 L 154.5 27 L 165 31 L 162 36.5 L 140.5 62 L 141 60.5 L 141 26.5 L 140.5 25 Z " /><path fill="rgb(36,32,32)" stroke="rgb(36,32,32)" stroke-width="1" opacity="1" d="M 1.5 26 L 28.5 26 L 31 27 Q 28.9 30.3 30 38.5 L 31 40.5 L 29.5 42 L 1.5 42 L 2 40.5 L 2 27.5 L 1.5 26 Z " /><path fill="rgb(36,32,32)" stroke="rgb(36,32,32)" stroke-width="1" opacity="1" d="M 69.5 37 L 101 37 L 101 68 L 93.5 66 L 92 66.5 Q 92.8 64.3 90.5 65 L 89 65.5 Q 89.8 63.3 87.5 64 L 84.5 62 L 83 62.5 L 74.5 52 L 73 51.5 L 73.5 50 L 72 49.5 L 72.5 48 L 71 47.5 L 72 45.5 Q 68.5 44 71 42.5 Q 71.5 37.8 69.5 37 Z " /><path fill="rgb(104,196,188)" stroke="rgb(104,196,188)" stroke-width="1" opacity="1" d="M 171.5 35 L 172.5 37 L 171.5 35 Z " /><path fill="rgb(104,196,188)" stroke="rgb(104,196,188)" stroke-width="1" opacity="1" d="M 101.5 36 L 107 36.5 L 101.5 37 L 101.5 36 Z " /><path fill="rgb(104,196,188)" stroke="rgb(104,196,188)" stroke-width="1" opacity="1" d="M 6.5 53 L 7.5 55 L 6.5 53 Z " /><path fill="rgb(104,196,188)" stroke="rgb(104,196,188)" stroke-width="1" opacity="1" d="M 59.5 56 L 56.5 60 L 59.5 56 Z " /><path fill="rgb(104,196,188)" stroke="rgb(104,196,188)" stroke-width="1" opacity="1" d="M 13.5 60 L 14.5 62 L 13.5 60 Z " /><path fill="rgb(104,196,188)" stroke="rgb(104,196,188)" stroke-width="1" opacity="1" d="M 140.5 67 L 191 67.5 L 140.5 68 L 140.5 67 Z " /><path fill="rgb(63,189,175)" stroke="rgb(63,189,175)" stroke-width="1" opacity="1" d="M 107.5 37 L 108 67.5 L 107 67.5 L 107.5 37 Z " /><path fill="rgb(63,189,175)" stroke="rgb(63,189,175)" stroke-width="1" opacity="1" d="M 173.5 38 L 172.5 40 L 173.5 38 Z " /><path fill="rgb(63,189,175)" stroke="rgb(63,189,175)" stroke-width="1" opacity="1" d="M 169.5 43 L 167.5 46 L 169.5 43 Z " /><path fill="rgb(63,189,175)" stroke="rgb(63,189,175)" stroke-width="1" opacity="1" d="M 164.5 49 L 163.5 51 L 164.5 49 Z " /><path fill="rgb(63,189,175)" stroke="rgb(63,189,175)" stroke-width="1" opacity="1" d="M 159.5 55 L 158.5 57 L 159.5 55 Z " /><path fill="rgb(63,189,175)" stroke="rgb(63,189,175)" stroke-width="1" opacity="1" d="M 25.5 56 L 24.5 58 L 25.5 56 Z " /><path fill="rgb(63,189,175)" stroke="rgb(63,189,175)" stroke-width="1" opacity="1" d="M 154.5 61 L 153.5 63 L 154.5 61 Z " /><path fill="rgb(49,160,147)" stroke="rgb(49,160,147)" stroke-width="1" opacity="1" d="M 2.5 24 L 30 24.5 L 2.5 25 L 1.5 26 L 2.5 24 Z " /><path fill="rgb(49,160,147)" stroke="rgb(49,160,147)" stroke-width="1" opacity="1" d="M 0.5 31 L 1 36.5 L 0 36.5 L 0.5 31 Z " /><path fill="rgb(49,160,147)" stroke="rgb(49,160,147)" stroke-width="1" opacity="1" d="M 165.5 32 L 174 37.5 L 149.5 67 L 140 67 L 140 62.5 L 165.5 32 Z " /><path fill="rgb(49,160,147)" stroke="rgb(49,160,147)" stroke-width="1" opacity="1" d="M 101 37 L 106.5 37 L 107 37.5 L 107 68 L 101.5 68 L 101 67.5 L 101 37 Z " /><path fill="rgb(49,160,147)" stroke="rgb(49,160,147)" stroke-width="1" opacity="1" d="M 69.5 38 L 70 40.5 L 69 40.5 L 69.5 38 Z " /><path fill="rgb(49,160,147)" stroke="rgb(49,160,147)" stroke-width="1" opacity="1" d="M 1.5 42 L 2.5 43 L 30 43.5 L 2.5 44 L 1.5 42 Z " /><path fill="rgb(49,160,147)" stroke="rgb(49,160,147)" stroke-width="1" opacity="1" d="M 4.5 49 L 28.5 49 L 29 50.5 L 18.5 64 L 8 55.5 L 4.5 49 Z " /><path fill="rgb(49,160,147)" stroke="rgb(49,160,147)" stroke-width="1" opacity="1" d="M 76.5 56 L 80.5 61 L 76.5 56 Z " /><path fill="rgb(64,190,176)" stroke="rgb(64,190,176)" stroke-width="1" opacity="1" d="M 108 37 L 129 37 L 129 68 L 108 68 L 108 37 Z " /><path fill="rgb(64,190,176)" stroke="rgb(64,190,176)" stroke-width="1" opacity="1" d="M 174.5 38 Q 187.9 47.9 191 67 L 150 66.5 L 174.5 38 Z " /><path fill="rgb(64,190,176)" stroke="rgb(64,190,176)" stroke-width="1" opacity="1" d="M 30.5 49 L 51.5 49 L 61 54.5 Q 53 67.5 32.5 68 L 22.5 66 L 19 63.5 Q 26.4 57.9 30.5 49 Z " /></svg>