<svg width="225" height="225" version="1.1" xmlns="http://www.w3.org/2000/svg" desc="Created with imagetracer.js version 1.2.6" ><path fill="rgb(194,57,91)" stroke="rgb(194,57,91)" stroke-width="1" opacity="1" d="M 0 0 L 225 0 L 225 225 L 0 225 L 0 0 Z M 1 1 L 1 224 L 224 224 L 224 1 L 1 1 Z " /><path fill="rgb(234,75,113)" stroke="rgb(234,75,113)" stroke-width="1" opacity="1" d="M 1 1 L 224 1 L 224 224 L 1 224 L 1 1 Z M 166 74 L 162 76 L 156 84 L 155 85 L 136 85 L 129 88 L 123 95 L 121 105 Q 119 110 110 108 L 107 105 L 98 97 Q 88 96 84 100 L 79 106 L 79 108 L 71 108 L 68 104 L 59 97 Q 50 96 47 99 Q 41 102 39 110 L 39 115 L 42 122 Q 45 127 53 128 Q 59 129 63 126 L 69 120 L 69 118 Q 71 114 78 116 L 79 120 Q 83 126 91 128 L 100 127 L 103 125 Q 107 122 108 116 Q 116 115 120 118 L 122 123 L 123 130 L 126 135 Q 130 140 140 139 L 142 145 L 152 151 Q 161 152 166 147 L 170 140 Q 172 131 168 127 L 159 120 Q 150 119 147 122 L 140 130 Q 141 132 135 131 L 131 128 Q 130 118 125 113 L 129 107 L 131 97 L 137 93 L 155 93 L 157 98 Q 160 103 168 105 L 173 105 L 180 102 Q 184 98 186 92 Q 187 85 184 82 L 175 74 L 166 74 Z " /><path fill="rgb(234,75,113)" stroke="rgb(234,75,113)" stroke-width="1" opacity="1" d="M 167.5 82 Q 175.5 80.5 177 85.5 L 178 90.5 L 175.5 95 L 168.5 97 L 163 92.5 Q 161.8 85.3 165.5 83 L 167.5 82 Z " /><path fill="rgb(234,75,113)" stroke="rgb(234,75,113)" stroke-width="1" opacity="1" d="M 51.5 105 Q 58.8 103.8 61 107.5 L 62 115.5 Q 60.4 120.9 52.5 120 L 48 116.5 L 47 110.5 L 51.5 105 Z " /><path fill="rgb(234,75,113)" stroke="rgb(234,75,113)" stroke-width="1" opacity="1" d="M 90.5 105 Q 98.5 103.5 100 108.5 L 101 113.5 L 97.5 119 L 91.5 120 L 86 115.5 Q 84.8 108.3 88.5 106 L 90.5 105 Z " /><path fill="rgb(234,75,113)" stroke="rgb(234,75,113)" stroke-width="1" opacity="1" d="M 152.5 128 Q 159 127 161 130.5 L 162 138.5 Q 160.4 143.9 152.5 143 L 148 139.5 L 147 134.5 L 150.5 129 L 152.5 128 Z " /><path fill="rgb(249,208,217)" stroke="rgb(249,208,217)" stroke-width="1" opacity="1" d="M 161.5 76 L 157.5 81 L 161.5 76 Z " /><path fill="rgb(249,208,217)" stroke="rgb(249,208,217)" stroke-width="1" opacity="1" d="M 168.5 81 L 172 81.5 L 168.5 82 L 168.5 81 Z " /><path fill="rgb(249,208,217)" stroke="rgb(249,208,217)" stroke-width="1" opacity="1" d="M 175.5 83 L 176.5 85 L 175.5 83 Z " /><path fill="rgb(249,208,217)" stroke="rgb(249,208,217)" stroke-width="1" opacity="1" d="M 155.5 84 L 154.5 86 L 135 85.5 L 154.5 85 L 155.5 84 Z " /><path fill="rgb(249,208,217)" stroke="rgb(249,208,217)" stroke-width="1" opacity="1" d="M 185.5 86 L 186 91.5 L 185 91.5 L 185.5 86 Z " /><path fill="rgb(249,208,217)" stroke="rgb(249,208,217)" stroke-width="1" opacity="1" d="M 162.5 87 L 163 90.5 L 162 90.5 L 162.5 87 Z " /><path fill="rgb(249,208,217)" stroke="rgb(249,208,217)" stroke-width="1" opacity="1" d="M 128.5 88 L 125.5 92 L 128.5 88 Z " /><path fill="rgb(249,208,217)" stroke="rgb(249,208,217)" stroke-width="1" opacity="1" d="M 164.5 94 L 165.5 96 L 164.5 94 Z " /><path fill="rgb(249,208,217)" stroke="rgb(249,208,217)" stroke-width="1" opacity="1" d="M 122.5 97 L 123 99.5 L 122 99.5 L 122.5 97 Z " /><path fill="rgb(249,208,217)" stroke="rgb(249,208,217)" stroke-width="1" opacity="1" d="M 182.5 98 L 179.5 102 L 182.5 98 Z " /><path fill="rgb(249,208,217)" stroke="rgb(249,208,217)" stroke-width="1" opacity="1" d="M 64.5 100 L 67.5 104 L 64.5 100 Z " /><path fill="rgb(249,208,217)" stroke="rgb(249,208,217)" stroke-width="1" opacity="1" d="M 83.5 100 L 81.5 103 L 83.5 100 Z " /><path fill="rgb(249,208,217)" stroke="rgb(249,208,217)" stroke-width="1" opacity="1" d="M 129.5 101 L 130 103.5 L 129 103.5 L 129.5 101 Z " /><path fill="rgb(249,208,217)" stroke="rgb(249,208,217)" stroke-width="1" opacity="1" d="M 53.5 104 L 56 104.5 L 53.5 105 L 53.5 104 Z " /><path fill="rgb(249,208,217)" stroke="rgb(249,208,217)" stroke-width="1" opacity="1" d="M 92.5 104 L 95 104.5 L 92.5 105 L 92.5 104 Z " /><path fill="rgb(249,208,217)" stroke="rgb(249,208,217)" stroke-width="1" opacity="1" d="M 167.5 104 L 173 104.5 L 167.5 105 L 167.5 104 Z " /><path fill="rgb(249,208,217)" stroke="rgb(249,208,217)" stroke-width="1" opacity="1" d="M 120.5 105 L 118.5 108 L 120.5 105 Z " /><path fill="rgb(249,208,217)" stroke="rgb(249,208,217)" stroke-width="1" opacity="1" d="M 49.5 106 L 48.5 108 L 49.5 106 Z " /><path fill="rgb(249,208,217)" stroke="rgb(249,208,217)" stroke-width="1" opacity="1" d="M 98.5 106 L 99.5 108 L 98.5 106 Z " /><path fill="rgb(249,208,217)" stroke="rgb(249,208,217)" stroke-width="1" opacity="1" d="M 69.5 107 L 78 108.5 L 70.5 109 L 69.5 107 Z " /><path fill="rgb(249,208,217)" stroke="rgb(249,208,217)" stroke-width="1" opacity="1" d="M 108.5 108 L 116 108.5 L 108.5 109 L 108.5 108 Z " /><path fill="rgb(249,208,217)" stroke="rgb(249,208,217)" stroke-width="1" opacity="1" d="M 39.5 109 L 40 114.5 L 39 114.5 L 39.5 109 Z " /><path fill="rgb(249,208,217)" stroke="rgb(249,208,217)" stroke-width="1" opacity="1" d="M 62.5 110 L 63 113.5 L 62 113.5 L 62.5 110 Z " /><path fill="rgb(249,208,217)" stroke="rgb(249,208,217)" stroke-width="1" opacity="1" d="M 85.5 110 L 86 113.5 L 85 113.5 L 85.5 110 Z " /><path fill="rgb(249,208,217)" stroke="rgb(249,208,217)" stroke-width="1" opacity="1" d="M 124.5 112 L 126.5 115 L 124.5 112 Z " /><path fill="rgb(249,208,217)" stroke="rgb(249,208,217)" stroke-width="1" opacity="1" d="M 61.5 116 L 59.5 119 L 61.5 116 Z " /><path fill="rgb(249,208,217)" stroke="rgb(249,208,217)" stroke-width="1" opacity="1" d="M 87.5 117 L 88.5 119 L 87.5 117 Z " /><path fill="rgb(249,208,217)" stroke="rgb(249,208,217)" stroke-width="1" opacity="1" d="M 68.5 119 L 67.5 121 L 68.5 119 Z " /><path fill="rgb(249,208,217)" stroke="rgb(249,208,217)" stroke-width="1" opacity="1" d="M 79.5 119 L 80.5 121 L 79.5 119 Z " /><path fill="rgb(249,208,217)" stroke="rgb(249,208,217)" stroke-width="1" opacity="1" d="M 42.5 121 L 45.5 125 L 42.5 121 Z " /><path fill="rgb(249,208,217)" stroke="rgb(249,208,217)" stroke-width="1" opacity="1" d="M 105.5 121 L 102.5 125 L 105.5 121 Z " /><path fill="rgb(249,208,217)" stroke="rgb(249,208,217)" stroke-width="1" opacity="1" d="M 164.5 123 L 167.5 127 L 164.5 123 Z " /><path fill="rgb(249,208,217)" stroke="rgb(249,208,217)" stroke-width="1" opacity="1" d="M 142.5 126 L 141.5 128 L 142.5 126 Z " /><path fill="rgb(249,208,217)" stroke="rgb(249,208,217)" stroke-width="1" opacity="1" d="M 52.5 127 L 58 127.5 L 52.5 128 L 52.5 127 Z " /><path fill="rgb(249,208,217)" stroke="rgb(249,208,217)" stroke-width="1" opacity="1" d="M 90.5 127 L 96 127.5 L 90.5 128 L 90.5 127 Z " /><path fill="rgb(249,208,217)" stroke="rgb(249,208,217)" stroke-width="1" opacity="1" d="M 131.5 128 L 133.5 131 L 131.5 128 Z " /><path fill="rgb(249,208,217)" stroke="rgb(249,208,217)" stroke-width="1" opacity="1" d="M 140.5 129 L 141 130.5 Q 140 133 135.5 132 L 135.5 131 Q 140.9 132.7 140.5 129 Z " /><path fill="rgb(249,208,217)" stroke="rgb(249,208,217)" stroke-width="1" opacity="1" d="M 162.5 133 L 163 137.5 L 162 137.5 L 162.5 133 Z " /><path fill="rgb(249,208,217)" stroke="rgb(249,208,217)" stroke-width="1" opacity="1" d="M 126.5 134 L 127.5 136 L 126.5 134 Z " /><path fill="rgb(249,208,217)" stroke="rgb(249,208,217)" stroke-width="1" opacity="1" d="M 161.5 139 L 159.5 142 L 161.5 139 Z " /><path fill="rgb(249,208,217)" stroke="rgb(249,208,217)" stroke-width="1" opacity="1" d="M 142.5 144 L 145.5 148 L 142.5 144 Z " /><path fill="rgb(249,208,217)" stroke="rgb(249,208,217)" stroke-width="1" opacity="1" d="M 166.5 145 L 165.5 147 L 166.5 145 Z " /><path fill="rgb(249,208,217)" stroke="rgb(249,208,217)" stroke-width="1" opacity="1" d="M 151.5 150 L 158 150.5 L 151.5 151 L 151.5 150 Z " /><path fill="rgb(254,254,254)" stroke="rgb(254,254,254)" stroke-width="1" opacity="1" d="M 145.5 123 L 143.5 126 L 145.5 123 Z " /><path fill="rgb(254,254,254)" stroke="rgb(254,254,254)" stroke-width="1" opacity="1" d="M 149.5 129 L 148.5 131 L 149.5 129 Z " /><path fill="rgb(255,255,255)" stroke="rgb(255,255,255)" stroke-width="1" opacity="1" d="M 168.5 74 Q 177.9 74.1 182 79.5 Q 186.3 83.7 185 93.5 L 178.5 102 Q 174.8 105.3 166.5 104 L 158 98.5 L 156 93 L 134.5 93 L 132 94 Q 128.4 98.7 128 107.5 L 124 112.5 L 129 119.5 L 130 127.5 L 133.5 131 L 139.5 132 L 147.5 122 L 155.5 120 Q 164 121.5 168 127.5 L 170 137.5 Q 168.5 144.5 163.5 148 Q 159.5 151.5 150.5 150 L 142 143.5 L 141 139 Q 129.9 139.5 125 132.5 L 123 128.5 L 122 120.5 L 117.5 116 L 108.5 116 L 107 117.5 L 101.5 125 Q 97.8 128.3 89.5 127 L 81 121.5 L 79 116 L 69.5 116 L 69 117.5 L 64.5 124 Q 60.3 128.3 50.5 127 L 42 120.5 Q 38.7 116.8 40 108.5 L 44.5 101 L 49.5 98 L 55.5 97 L 62.5 99 L 68 104.5 L 69 109 L 78.5 109 L 79 107.5 L 84.5 100 L 93.5 97 L 98.5 98 L 105 102.5 L 108.5 109 Q 119.3 110.8 122 104.5 L 123 96.5 L 129.5 88 L 133.5 86 L 156 86 Q 156.4 78.9 162.5 76 L 168.5 74 Z M 169 81 L 167 82 L 162 88 L 163 94 L 168 97 Q 177 98 178 93 L 177 85 Q 175 80 169 81 Z M 54 104 L 51 105 L 47 110 L 47 116 L 49 119 Q 52 121 59 120 L 63 115 L 62 109 Q 60 104 54 104 Z M 92 104 L 90 105 L 85 111 Q 84 118 90 120 Q 96 121 99 119 L 101 116 L 100 108 Q 98 104 92 104 Z M 154 127 L 150 129 L 147 133 Q 146 139 148 141 L 155 144 L 159 143 L 163 138 Q 164 131 161 129 L 154 127 Z " /></svg>